# xmcd
# Copyright (C) 1995-1998 Ti Kan
#
# Track frame offsets:
#       150
#       2794
#       5344
#       8149
#       11022
#       14922
#       17533
#       20533
#
# Disc length: 308 seconds
#
# Revision: 0
# Processed by: cddbd v1.5.2PL0 Copyright (c) Steve Scherf et al.
# Submitted via: CD-Transfer v1.0
#
DISCID=4e013208
DTITLE=@hook - 
DYEAR=06
DGENRE=
TTITLE0=Hook/0608/10
TTITLE1=Hook/0608/11
TTITLE2=Hook/0608/12
TTITLE3=Hook/0608/13
TTITLE4=Hook/0608/14
TTITLE5=Hook/0608/15
TTITLE6=Hook/0608/16
TTITLE7=Hook/0608/17
EXTD=
EXTT0=
EXTT1=
EXTT2=
EXTT3=
EXTT4=
EXTT5=
EXTT6=
EXTT7=
PLAYORDER=
